<?xml version="1.0" encoding="UTF-8"?>
<!DOCTYPE svg PUBLIC "-//W3C//DTD SVG 1.1//EN" "http://www.w3.org/Graphics/SVG/1.1/DTD/svg11.dtd">
<!-- Creator: CorelDRAW X7 -->
<svg xmlns="http://www.w3.org/2000/svg" xml:space="preserve" width="370px" height="200px" version="1.1" style="shape-rendering:geometricPrecision; text-rendering:geometricPrecision; image-rendering:optimizeQuality; fill-rule:evenodd; clip-rule:evenodd"
viewBox="0 0 370000 199987"
 xmlns:xlink="http://www.w3.org/1999/xlink"
 enable-background="new 0 0 90 30">
 <defs>
  <style type="text/css">
   <![CDATA[
    .fil0 {fill:#2BA3D4}
   ]]>
  </style>
 </defs>
 <g id="Laag_x0020_1">
  <metadata id="CorelCorpID_0Corel-Layer"/>
  <g id="logo-uikit.svg">
   <g>
    <g>
     <path class="fil0" d="M180748 117702c0,3288 -1399,5556 -3969,6803 -2589,1247 -6936,1871 -13607,1871 -3024,0 -5537,-283 -7541,-869 -1984,-586 -4365,-1418 -5197,-2533 -850,-1115 -1417,-2211 -1682,-3269 -264,-1077 -283,-2400 -283,-4007l0 -45319 -10773 0 0 45981c0,6217 1210,10866 4404,13947 3194,3062 9071,4592 17613,4592 12889,0 19674,-3061 20940,-9203l0 9203 10773 0 0 -64520 -10678 0 0 47323 0 0zm25778 -58133l10734 0 0 -10716 -10734 0 0 10716zm56 75349l10678 0 0 -64539 -10678 0 0 64539zm76068 -64539l-14666 0 -24908 26723 0 -48268 -10735 0 0 86084 10735 0 0 -32581 27176 32562 14949 0 -30559 -35321 28008 -29199zm14231 64539l10810 0 0 -64539 -10810 0 0 64539zm0 -75349l10810 0 0 -10716 -10810 0 0 10716zm73138 19390l0 -8580 -23680 0 0 -21563 -10716 0 0 21563 -12927 0 0 8580 12927 0 0 35813c0,7805 2003,13135 5197,15932 3213,2797 8845,4195 16952,4195 4706,0 7976,-359 12266,-1058l0 -8542c-4989,718 -6993,1058 -8410,1058 -5405,0 -10905,-775 -12681,-2324 -1777,-1550 -2589,-3969 -2589,-8599l0 -36475 23661 0 0 0z"/>
    </g>
   </g>
   <g>
    <g>
     <path class="fil0" d="M83287 55940l-20770 12587 23548 13645 0 35775 -31769 17897 -33224 -17897 0 -27724 -21053 -10697 0 50800 53521 30332 53578 -30332 0 -60684 -23831 -13702zm-11906 -5008l-20128 -11641 -20996 12983 20411 11226 20713 -12568z"/>
    </g>
   </g>
  </g>
 </g>
</svg>
